<svg version="1.1" xmlns="http://www.w3.org/2000/svg" xmlns:xlink="http://www.w3.org/1999/xlink" width="509.00967" height="386.00995" viewBox="0,0,509.00967,386.00995"><g transform="translate(3.81615,24.98924)"><g data-paper-data="{&quot;isPaintingLayer&quot;:true}" fill-rule="nonzero" stroke="none" stroke-width="0" stroke-linecap="butt" stroke-linejoin="miter" stroke-miterlimit="10" stroke-dasharray="" stroke-dashoffset="0" style="mix-blend-mode: normal"><path d="M-3.81615,360.37292v-385.36215h45.7954v385.36215z" fill="#57caf2"/><path d="M61.56929,265.6011v-215.3343h18.26156v215.3343z" fill="#9f6001"/><path d="M190.92205,172.77146v-121.74378h18.26156v121.74378z" fill="#9f6001"/><path d="M190.92205,266.36199v-54.7847h18.26156v54.7847z" fill="#9f6001"/><path d="M63.85198,65.48476v-14.45706h142.28804v14.45706z" fill="#9f6001"/><path d="M63.85197,264.8402v-14.45706h142.28804v14.45706z" fill="#9f6001"/><path d="M-3.16835,361.02072v-51.89286h508.36187v51.89286z" fill="#57caf2"/><path d="M206.82833,148.21945v-39.42911h94.35143v39.42911z" fill="#414141"/><path d="M226.68428,255.82609v-15.21797h28.7993c0,0 15.76255,3.70989 17.50887,7.15061c1.74632,3.44071 -16.75618,8.06737 -16.75618,8.06737z" fill="#494949"/><g><path d="M82.11356,250.38312v-85.98155h30.43595v85.98155z" fill="#e82424"/><path d="M85.15716,247.33952v-12.93527h24.34876v12.93527z" fill="#e8e8e8"/></g><path d="M299.78332,266.61158v-55.0795h22.94704v55.0795z" fill="#693f1f"/></g></g></svg>