<svg version="1.1" xmlns="http://www.w3.org/2000/svg" xmlns:xlink="http://www.w3.org/1999/xlink" width="511.60086" height="391.19235" viewBox="0,0,511.60086,391.19235"><g transform="translate(6.99909,0.82227)"><g data-paper-data="{&quot;isPaintingLayer&quot;:true}" fill-rule="nonzero" stroke="none" stroke-width="0" stroke-linecap="butt" stroke-linejoin="miter" stroke-miterlimit="10" stroke-dasharray="" stroke-dashoffset="0" style="mix-blend-mode: normal"><path d="M-6.99909,11.02139v-11.84365h511.60086v11.84365z" data-paper-data="{&quot;index&quot;:null}" fill="#57caf2"/><path d="M-6.35129,390.37007v-391.19235h36.48163v391.19235z" data-paper-data="{&quot;index&quot;:null}" fill="#57caf2"/><path d="M55.42091,248.76375v-222.52833h18.26156v222.52833z" fill="#9f6001"/><path d="M58.65168,41.02003v-14.45706h142.28804v14.45706z" fill="#9f6001"/><path d="M183.03629,121.14836v-85.22064h18.26156v85.22064z" fill="#9f6001"/><path d="M183.0363,254.4176v-93.29756h18.26156v93.29756z" fill="#9f6001"/><path d="M57.0363,254.25081v-14.45706h142.28804v14.45706z" fill="#9f6001"/><path d="M408.35617,152.84791v-124.99711h7.81412v124.99711z" fill="#9f6001"/><path d="M197.29617,112.65691v-5.65385h84.80769v5.65385z" fill="#9f6001"/><path d="M194.87309,32.62513v-5.8505h220.5v5.8505z" fill="#9f6001"/><path d="M285.33463,152.23381v-5.65384h127.61538v5.65384z" fill="#9f6001"/><path d="M281.54848,151.23252v-43.42019h7.81412v43.42019z" fill="#9f6001"/><path d="M73.8256,241.27004v-23.67868h108.95409v23.67868z" fill="#737373"/><g><path d="M179.5566,75.57888l-85.98136,0.1808l-0.064,-30.43588l85.98136,-0.1808z" fill="#e82424"/><path d="M176.5066,72.54169l-12.93524,0.0272l-0.0512,-24.34871l12.93524,-0.0272z" fill="#e8e8e8"/></g><path d="M201.16306,251.74028v-39.42549h22.94704v39.42549z" fill="#693f1f"/></g></g></svg>