<svg version="1.1" xmlns="http://www.w3.org/2000/svg" xmlns:xlink="http://www.w3.org/1999/xlink" width="289" height="382.66038" viewBox="0,0,289,382.66038"><g transform="translate(0.5,5.5)"><g data-paper-data="{&quot;isPaintingLayer&quot;:true}" fill-rule="nonzero" stroke="none" stroke-width="0" stroke-linecap="butt" stroke-linejoin="miter" stroke-miterlimit="10" stroke-dasharray="" stroke-dashoffset="0" style="mix-blend-mode: normal"><path d="M189.5,51.5v-57h99v57z" data-paper-data="{&quot;index&quot;:null}" fill="#9ef160"/><path d="M189.5,51.5v-57h99v57z" data-paper-data="{&quot;index&quot;:null}" fill="#57caf2"/><path d="M96.5,105.5v-57h99v57z" data-paper-data="{&quot;index&quot;:null}" fill="#57caf2"/><path d="M96.5,156.5v-57h99v57z" data-paper-data="{&quot;index&quot;:null}" fill="#9ef160"/><path d="M96.5,51.5v-57h99v57z" data-paper-data="{&quot;index&quot;:null}" fill="#9ef160"/><path d="M96.5,156.5v-57h99v57z" data-paper-data="{&quot;index&quot;:null}" fill="#57caf2"/><path d="M96.5,51.5v-57h99v57z" data-paper-data="{&quot;index&quot;:null}" fill="#57caf2"/><path d="M-0.5,210.5v-57h99v57z" data-paper-data="{&quot;index&quot;:null}" fill="#9ef160"/><path d="M-0.5,105.5v-57h99v57z" data-paper-data="{&quot;index&quot;:null}" fill="#9ef160"/><path d="M-0.5,314.5v-57h99v57z" data-paper-data="{&quot;index&quot;:null}" fill="#9ef160"/><path d="M-0.5,210.5v-57h99v57z" data-paper-data="{&quot;index&quot;:null}" fill="#57caf2"/><path d="M-0.5,105.5v-57h99v57z" data-paper-data="{&quot;index&quot;:null}" fill="#57caf2"/><path d="M-0.5,314.5v-57h99v57z" data-paper-data="{&quot;index&quot;:null}" fill="#57caf2"/><path d="M-0.5,156.5v-57h99v57z" data-paper-data="{&quot;index&quot;:null}" fill="#9ef160"/><path d="M-0.5,365.5v-57h99v57z" data-paper-data="{&quot;index&quot;:null}" fill="#9ef160"/><path d="M-0.5,51.5v-57h99v57z" data-paper-data="{&quot;index&quot;:null}" fill="#9ef160"/><path d="M-0.5,260.5v-57h99v57z" data-paper-data="{&quot;index&quot;:null}" fill="#9ef160"/><path d="M-0.5,156.5v-57h99v57z" data-paper-data="{&quot;index&quot;:null}" fill="#57caf2"/><path d="M-0.5,377.16038v-68.66038h99v68.66038z" data-paper-data="{&quot;index&quot;:null}" fill="#57caf2"/><path d="M-0.5,51.5v-57h99v57z" data-paper-data="{&quot;index&quot;:null}" fill="#57caf2"/><path d="M-0.5,260.5v-57h99v57z" data-paper-data="{&quot;index&quot;:null}" fill="#57caf2"/></g></g></svg>