<svg version="1.1" xmlns="http://www.w3.org/2000/svg" xmlns:xlink="http://www.w3.org/1999/xlink" width="159.43086" height="33.19768" viewBox="0,0,159.43086,33.19768"><g transform="translate(-159.95793,-171.62597)"><g stroke-miterlimit="10"><g><path d="M310.19458,188.47917l-64.89778,-1.05011" fill="none" stroke="#af6b0e" stroke-width="3" stroke-linecap="round"/><path d="M294.95236,171.62597l24.43643,0.29601c0,0 -9.93584,11.95619 -9.88298,13.30515c0.09437,2.407 -7.57958,2.42517 -7.66218,-0.13302c-0.04786,-1.48318 -6.89129,-13.46812 -6.89129,-13.46812z" fill="#838383" stroke="none" stroke-width="0" stroke-linecap="butt"/><path d="M301.41274,190.29805c0.16232,-2.55438 7.83196,-2.29691 7.66261,0.106c-0.09492,1.34664 9.46325,13.60687 9.46325,13.60687l-24.43377,-0.46617c0,0 7.21381,-11.76571 7.30792,-13.24667z" fill="#838383" stroke="none" stroke-width="0" stroke-linecap="butt"/><path d="M301.60664,183.56067l7.69287,0.11997l-0.13853,8.88174l-7.69287,-0.11997z" fill="#838383" stroke="none" stroke-width="0" stroke-linecap="butt"/><path d="M310.52359,191.53438c-0.00602,0.38685 -0.79358,0.42481 -0.79358,0.42481c-0.5793,-0.01254 -1.04816,-0.13332 -1.59315,-0.32418c-1.1987,-0.36279 -2.56779,-0.92408 -3.836,-1.67299c-0.8783,0.52584 -1.76834,1.0305 -2.69146,1.47462l-0.33468,0.02307c-0.04122,0.01076 -0.08805,0.01649 -0.14126,0.01566c-0.01665,-0.00026 -0.03265,-0.00115 -0.048,-0.00259l-0.02192,0.00152c0,0 -0.43711,-0.00681 -0.43028,-0.44391c0.00142,-0.09082 0.02141,-0.16247 0.0522,-0.219c-0.06376,-0.03048 -0.1268,-0.08351 -0.18254,-0.17008c-0.23678,-0.36747 0.13069,-0.60425 0.13069,-0.60425c0.02718,-0.01752 0.0543,-0.03514 0.08132,-0.05289c0.00604,-1.12463 -0.00604,-2.25296 -0.00352,-3.38032c-0.18888,-0.3318 -0.34432,-0.67766 -0.46014,-1.03733c0,0 -0.13176,-0.41683 0.28507,-0.54857c0.14031,-0.04436 0.24833,-0.02655 0.32988,0.01661c0.06557,-0.05894 0.16085,-0.10132 0.29935,-0.09917c0.16919,0.00263 0.27184,0.06974 0.33415,0.151c1.18669,0.36184 2.20222,0.9625 3.17374,1.65025c1.24101,-0.99445 2.57806,-1.81211 4.29928,-2.02815c1.40164,0.0189 2.01784,0.49455 1.49173,1.94834l-0.21373,0.21547c-0.00816,1.41221 0.01402,2.82628 -0.00097,4.23246c0.00128,0.00606 0.00247,0.01219 0.0035,0.01845c0.12406,0.04533 0.2744,0.15345 0.27037,0.41122zM309.36119,186.98819c-0.84968,0.43129 -1.67399,0.90958 -2.49021,1.40299c0.84059,0.62951 1.68499,1.2211 2.51261,1.8639c0.00377,-1.0793 -0.01059,-2.16311 -0.00723,-3.24512c-0.00537,-0.00727 -0.01041,-0.01454 -0.01517,-0.02177zM308.40824,190.8039c0.15428,0.0542 0.29937,0.10306 0.44247,0.14426c-0.88616,-0.68859 -1.79094,-1.31527 -2.69035,-1.99754c-0.03052,-0.02317 -0.06101,-0.04636 -0.09145,-0.0696c-0.30654,0.18856 -0.61276,0.37778 -0.91956,0.56591c1.1095,0.60243 2.27052,1.05783 3.25887,1.35695zM309.02102,185.58141c-1.41553,0.18224 -2.57777,0.83903 -3.65101,1.66558c0.2541,0.19129 0.50725,0.38612 0.76184,0.58167c1.06487,-0.64995 2.1387,-1.28351 3.25986,-1.83105c0.01944,-0.11248 0.09325,-0.33927 0.3729,-0.3652c-0.10401,-0.09753 -0.36245,-0.04418 -0.74359,-0.05102zM305.33853,188.31549c-0.21924,-0.17063 -0.43834,-0.34055 -0.65904,-0.50723c-0.30302,0.25761 -0.60158,0.52396 -0.89965,0.79157c0.17031,0.12056 0.34464,0.23717 0.52202,0.34979c0.34648,-0.2097 0.69161,-0.42187 1.03666,-0.63415zM301.5843,190.44566c-0.00008,0.00986 -0.00016,0.01977 -0.00024,0.02965c0.64444,-0.32254 1.27385,-0.67229 1.89564,-1.03581c-0.12013,-0.08248 -0.23867,-0.16676 -0.35536,-0.25285c-0.50012,0.44308 -1.00721,0.87439 -1.54004,1.25904zM301.58815,186.02848c-0.00097,0.11965 -0.00176,0.23933 -0.00235,0.35902c0.38531,0.62131 0.91148,1.18689 1.51918,1.69436c0.29538,-0.26036 0.58912,-0.52102 0.88539,-0.77589c-0.74438,-0.519 -1.52483,-0.9748 -2.40224,-1.27747zM301.58831,189.35756c0.29427,-0.22779 0.58084,-0.46502 0.86329,-0.70652c-0.31043,-0.26741 -0.60136,-0.54952 -0.86652,-0.84614c0.00122,0.51782 0.00322,1.03548 0.00324,1.55264z" fill="#9c9000" stroke="none" stroke-width="0.5" stroke-linecap="butt"/></g><g><path d="M169.15213,189.29192l64.89778,-1.05011" fill="none" stroke="#af6b0e" stroke-width="3" stroke-linecap="round"/><path d="M184.39438,172.43874c0,0 -6.84342,11.98494 -6.89129,13.46812c-0.0826,2.55819 -7.75656,2.54002 -7.66219,0.13302c0.05286,-1.34895 -9.88297,-13.30515 -9.88297,-13.30515l24.43642,-0.29601z" fill="#838383" stroke="none" stroke-width="0" stroke-linecap="butt"/><path d="M177.93397,191.11082c0.09411,1.48095 7.30792,13.24667 7.30792,13.24667l-24.43377,0.46617c0,0 9.55816,-12.26022 9.46325,-13.60686c-0.16935,-2.40291 7.50028,-2.66038 7.66261,-0.106z" fill="#838383" stroke="none" stroke-width="0" stroke-linecap="butt"/><path d="M177.8786,193.25517l-7.69287,0.11997l-0.13853,-8.88174l7.69287,-0.11997z" fill="#838383" stroke="none" stroke-width="0" stroke-linecap="butt"/><path d="M168.82308,192.34717c-0.00403,-0.25777 0.1463,-0.36589 0.27037,-0.41122c0.00104,-0.00626 0.00223,-0.0124 0.00351,-0.01845c-0.01499,-1.40617 0.0072,-2.82025 -0.00097,-4.23246l-0.21374,-0.21547c-0.5261,-1.4538 0.0901,-1.92944 1.49173,-1.94834c1.72122,0.21604 3.05827,1.0337 4.29928,2.02814c0.97152,-0.68775 1.98705,-1.2884 3.17374,-1.65024c0.0623,-0.08127 0.16496,-0.14837 0.33415,-0.151c0.13851,-0.00215 0.23379,0.04022 0.29935,0.09917c0.08155,-0.04316 0.18957,-0.06097 0.32988,-0.01661c0.41683,0.13174 0.28507,0.54857 0.28507,0.54857c-0.11582,0.35967 -0.27126,0.70553 -0.46014,1.03733c0.00251,1.12736 -0.00956,2.2557 -0.00352,3.38032c0.02702,0.01774 0.05415,0.03537 0.08132,0.05289c0,0 0.36747,0.23678 0.13068,0.60425c-0.05574,0.08657 -0.11877,0.1396 -0.18254,0.17008c0.03079,0.05653 0.05078,0.12817 0.0522,0.219c0.00682,0.43711 -0.43028,0.44391 -0.43028,0.44391l-0.02192,-0.00151c-0.01535,0.00144 -0.03135,0.00232 -0.048,0.00259c-0.05321,0.00083 -0.10004,-0.0049 -0.14126,-0.01566l-0.33468,-0.02307c-0.92313,-0.44412 -1.81316,-0.94878 -2.69146,-1.47462c-1.26821,0.74892 -2.63731,1.31021 -3.836,1.673c-0.54498,0.19087 -1.01385,0.31164 -1.59314,0.32418c0,0 -0.78757,-0.03796 -0.79358,-0.42481zM169.97036,187.82272c0.00336,1.08201 -0.011,2.16583 -0.00724,3.24512c0.82763,-0.6428 1.67203,-1.23439 2.51262,-1.8639c-0.81622,-0.49341 -1.64052,-0.9717 -2.49021,-1.403c-0.00476,0.00723 -0.0098,0.0145 -0.01517,0.02177zM170.93849,191.61663c0.98835,-0.29913 2.14937,-0.75452 3.25887,-1.35695c-0.3068,-0.18813 -0.61302,-0.37735 -0.91956,-0.56591c-0.03044,0.02323 -0.06092,0.04642 -0.09145,0.06959c-0.89941,0.68228 -1.80418,1.30895 -2.69035,1.99755c0.1431,-0.0412 0.28819,-0.09006 0.44248,-0.14426zM170.32569,186.39414c-0.38114,0.00684 -0.63958,-0.04651 -0.74359,0.05102c0.27965,0.02593 0.35345,0.25273 0.3729,0.3652c1.12117,0.54754 2.19499,1.1811 3.25986,1.83105c0.25459,-0.19555 0.50774,-0.39038 0.76184,-0.58167c-1.07324,-0.82655 -2.23548,-1.48335 -3.65101,-1.66558zM174.0082,189.12822c0.34505,0.21228 0.69017,0.42445 1.03665,0.63415c0.17737,-0.11262 0.35171,-0.22923 0.52202,-0.34979c-0.29807,-0.26761 -0.59663,-0.53396 -0.89965,-0.79157c-0.2207,0.16668 -0.4398,0.3366 -0.65904,0.50723zM177.76241,191.25846c-0.53283,-0.38465 -1.03992,-0.81596 -1.54004,-1.25904c-0.11669,0.08608 -0.23522,0.17036 -0.35535,0.25284c0.6218,0.36352 1.2512,0.71327 1.89564,1.03581c-0.00008,-0.00988 -0.00016,-0.01979 -0.00025,-0.02966zM177.75858,186.84125c-0.87741,0.30267 -1.65787,0.75847 -2.40224,1.27747c0.29627,0.25487 0.59001,0.51553 0.88539,0.77589c0.60769,-0.50747 1.13386,-1.07305 1.51918,-1.69436c-0.00059,-0.11969 -0.00138,-0.23938 -0.00235,-0.35903zM177.75838,190.17029c0.00002,-0.51716 0.00203,-1.03481 0.00324,-1.55263c-0.26516,0.29662 -0.55608,0.57872 -0.86651,0.84614c0.28246,0.2415 0.56903,0.47873 0.86329,0.70652z" fill="#9c9000" stroke="none" stroke-width="0.5" stroke-linecap="butt"/></g></g></g></svg>