<svg version="1.1" xmlns="http://www.w3.org/2000/svg" xmlns:xlink="http://www.w3.org/1999/xlink" width="483.53798" height="145.43361" viewBox="0,0,483.53798,145.43361"><g transform="translate(0.5,5.49999)"><g data-paper-data="{&quot;isPaintingLayer&quot;:true}" fill-rule="nonzero" stroke="none" stroke-width="0" stroke-linecap="butt" stroke-linejoin="miter" stroke-miterlimit="10" stroke-dasharray="" stroke-dashoffset="0" style="mix-blend-mode: normal"><path d="M112.90385,104.55145l-96.19234,-110.05144l347.69241,4.19027l-10.22707,85.63581z" data-paper-data="{&quot;index&quot;:null}" fill="#d1e85b"/><path d="M121.54308,104.09844l-28.63581,-106.08996h268.76943l-7.67078,85.96403z" data-paper-data="{&quot;index&quot;:null}" fill-opacity="0.50132" fill="#3cc2ef"/><path d="M0.0163,46.7561c1.6097,-14.97171 44.91242,3.7935 59.62969,4.25225c15.86948,0.49467 98.11702,-0.25444 180.12684,-0.25444c78.49848,0 224.60825,7.25207 236.51705,10.65975c20.59257,5.89251 -19.12414,79.35603 -72.36816,78.51277c-25.70463,-0.40709 -170.64166,-0.5793 -262.07846,-22.79742c-97.96346,-23.80402 -141.89214,-69.76667 -141.82696,-70.37293z" fill="#754730"/><path d="M351.99315,85.68972v-89.72664h131.04483v89.72664z" data-paper-data="{&quot;index&quot;:null}" fill="#57caf2"/><path d="M122.36318,99.3258c-4.04789,9.87277 -7.74432,8.05809 -25.2013,-4.09084c-17.45699,-12.14893 -37.49928,-39.54468 -37.49928,-39.54468h-60.1626v-57h124.22678v31.75299c0,0 2.68427,59.00976 -1.36361,68.88253z" data-paper-data="{&quot;index&quot;:null}" fill="#57caf2"/></g></g></svg>