<svg version="1.1" xmlns="http://www.w3.org/2000/svg" xmlns:xlink="http://www.w3.org/1999/xlink" width="501.72957" height="380.06919" viewBox="0,0,501.72957,380.06919"><g transform="translate(0.5,14.56919)"><g stroke="none" stroke-width="0" stroke-miterlimit="10"><path d="M288.5,308.5v57h-99v-57z" fill="#9ef160"/><path d="M288.5,308.5v57h-99v-57z" fill="#57caf2"/><path d="M195.5,254.5v57h-99v-57z" fill="#57caf2"/><path d="M195.5,203.5v57h-99v-57z" fill="#9ef160"/><path d="M195.5,308.5v57h-99v-57z" fill="#9ef160"/><path d="M195.5,203.5v57h-99v-57z" fill="#57caf2"/><path d="M195.5,308.5v57h-99v-57z" fill="#57caf2"/><path d="M480.5,308.5v57h-99v-57z" fill="#9ef160"/><path d="M501.22957,308.5v57h-119.08177v-57z" fill="#57caf2"/><path d="M98.5,149.5v57h-99v-57z" fill="#9ef160"/><path d="M98.5,254.5v57h-99v-57z" fill="#9ef160"/><path d="M98.5,45.5v57h-99v-57z" fill="#9ef160"/><path d="M98.5,149.5v57h-99v-57z" fill="#57caf2"/><path d="M98.5,254.5v57h-99v-57z" fill="#57caf2"/><path d="M98.5,45.5v57h-99v-57z" fill="#57caf2"/><path d="M98.5,203.5v57h-99v-57z" fill="#9ef160"/><path d="M98.5,-5.5v57h-99v-57z" fill="#9ef160"/><path d="M98.5,308.5v57h-99v-57z" fill="#9ef160"/><path d="M98.5,99.5v57h-99v-57z" fill="#9ef160"/><path d="M98.5,203.5v57h-99v-57z" fill="#57caf2"/><path d="M98.5,-14.56919v66.06919h-99v-66.06919z" fill="#57caf2"/><path d="M98.5,308.5v57h-99v-57z" fill="#57caf2"/><path d="M98.5,99.5v57h-99v-57z" fill="#57caf2"/><path d="M383.5,259.37511v57h-99v-57z" fill="#57caf2"/><path d="M383.5,308.5v57h-99v-57z" fill="#9ef160"/><path d="M383.5,308.5v57h-99v-57z" fill="#57caf2"/></g></g></svg>