<svg version="1.1" xmlns="http://www.w3.org/2000/svg" xmlns:xlink="http://www.w3.org/1999/xlink" width="503.06412" height="381.51371" viewBox="0,0,503.06412,381.51371"><g transform="translate(7.80396,10.09067)"><g stroke="none" stroke-width="0" stroke-miterlimit="10"><path d="M-7.80396,371.42305v-381.51371h503.06412v381.51371z" fill="#b68648"/><path d="M111.66347,139.24103v-84.18877h336.57709v84.18877z" fill="#d1e85b"/><path d="M112.90385,104.55145l-96.19234,-110.05144l347.69241,4.19027l-10.22707,85.63581z" fill="#d1e85b"/><path d="M112.39845,105.46695l-19.49118,-107.45848h268.76943l-7.67078,87.51558z" fill-opacity="0.50132" fill="#3cc2ef"/><path d="M-0.51767,51.06621c1.6097,-22.24075 44.91242,1.36359 59.62969,2.04508c8.36075,0.38715 24.03651,29.17487 55.56035,51.78265c28.31137,20.30391 70.74806,34.69369 109.55147,34.69369c78.49848,0 239.62327,-71.8095 251.53207,-66.74733c20.59257,8.75344 -19.12414,117.88486 -72.36816,116.63219c-25.70463,-0.60475 -170.64166,-0.86056 -262.07846,-33.86598c-97.96346,-35.36132 -141.89214,-103.63969 -141.82696,-104.5403z" fill="#754730"/><path d="M351.99315,85.68971v-89.72664h131.04483v89.72664z" fill="#57caf2"/><path d="M122.36318,99.3258c-4.04789,9.87277 -7.74432,8.05809 -25.2013,-4.09084c-17.45699,-12.14893 -37.49928,-39.54468 -37.49928,-39.54468h-60.1626v-57h124.22678v31.75299c0,0 2.68427,59.00976 -1.36361,68.88253z" fill="#57caf2"/></g></g></svg>