<svg version="1.1" xmlns="http://www.w3.org/2000/svg" xmlns:xlink="http://www.w3.org/1999/xlink" width="309.75438" height="220.39485" viewBox="0,0,309.75438,220.39485"><g transform="translate(-77.4584,-52.70296)"><g data-paper-data="{&quot;isPaintingLayer&quot;:true}" fill="#754730" fill-rule="nonzero" stroke="none" stroke-width="0" stroke-linecap="butt" stroke-linejoin="miter" stroke-miterlimit="10" stroke-dasharray="" stroke-dashoffset="0" style="mix-blend-mode: normal"><path d="M387.21278,152.15449c0,9.73298 -26.10609,50.83507 -36.657,92.03708c-6.21048,24.25234 13.16408,23.46779 5.12661,28.75084c-1.52467,1.00217 -215.84399,-3.17084 -228.90713,-3.17084c-10.77111,0 -9.16985,2.21236 -25.02253,-28.99385c-19.71749,-38.81414 -24.29432,-96.66027 -24.29432,-116.45608c0,-21.9588 40.36899,-38.40005 76.61393,-52.18478c21.61622,-8.22112 41.76559,-19.4339 51.00988,-19.4339c14.95202,0 77.48303,55.1578 105.82852,66.78827c18.56446,7.6172 76.30205,18.7904 76.30205,32.66326z"/></g></g></svg>