<svg version="1.1" xmlns="http://www.w3.org/2000/svg" xmlns:xlink="http://www.w3.org/1999/xlink" width="37.85701" height="42.00003" viewBox="0,0,37.85701,42.00003"><g transform="translate(-221.05659,-159.19999)"><g data-paper-data="{&quot;isPaintingLayer&quot;:true}" fill-rule="nonzero" stroke="none" stroke-width="0" stroke-linecap="butt" stroke-linejoin="miter" stroke-miterlimit="10" stroke-dasharray="" stroke-dashoffset="0" style="mix-blend-mode: normal"><path d="M239.65647,189.32362v2.08545h-4.97917v-2.08545z" data-paper-data="{&quot;index&quot;:null}" fill="#8c773c"/><path d="M221.63718,163.10114v-2.64892h5.97611v2.64892z" data-paper-data="{&quot;index&quot;:null}" fill="#debb66"/><path d="M231.49219,163.01777v-2.64892h5.97611v2.64892z" data-paper-data="{&quot;index&quot;:null}" fill="#debb66"/><path d="M241.04628,163.18449v-2.64892h5.97611v2.64892z" data-paper-data="{&quot;index&quot;:null}" fill="#debb66"/><path d="M250.90129,163.10113v-2.64892h5.97611v2.64892z" data-paper-data="{&quot;index&quot;:null}" fill="#debb66"/><path d="M232.02868,175.50346v-2.64892h5.97611v2.64892z" data-paper-data="{&quot;index&quot;:null}" fill="#debb66"/><path d="M232.27886,174.66715v-2.64892h5.97611v2.64892z" data-paper-data="{&quot;index&quot;:null}" fill="#debb66"/><path d="M234.13523,188.28448v-2.64892h5.97611v2.64892z" data-paper-data="{&quot;index&quot;:null}" fill="#debb66"/><path d="M250.75084,168.51975v-2.64892h5.97611v2.64892z" data-paper-data="{&quot;index&quot;:null}" fill="#debb66"/><path d="M221.78763,173.68829v-2.64892h5.97611v2.64892z" data-paper-data="{&quot;index&quot;:null}" fill="#debb66"/><path d="M240.58039,180.46165v-2.64892h5.97611v2.64892z" data-paper-data="{&quot;index&quot;:null}" fill="#debb66"/><path d="M241.19674,173.77165v-2.64892h5.97611v2.64892z" data-paper-data="{&quot;index&quot;:null}" fill="#debb66"/><path d="M251.05176,173.68829v-2.64892h5.97611v2.64892z" data-paper-data="{&quot;index&quot;:null}" fill="#debb66"/><path d="M231.49219,179.02355v-2.64892h5.97611v2.64892z" data-paper-data="{&quot;index&quot;:null}" fill="#debb66"/><path d="M250.90129,179.10691v-2.64892h5.97611v2.64892z" data-paper-data="{&quot;index&quot;:null}" fill="#debb66"/><path d="M221.56195,183.942v-2.64892h5.97611v2.64892z" data-paper-data="{&quot;index&quot;:null}" fill="#debb66"/><path d="M231.41696,183.85863v-2.64892h5.97611v2.64892z" data-paper-data="{&quot;index&quot;:null}" fill="#debb66"/><path d="M240.97106,184.02536v-2.64892h5.97611v2.64892z" data-paper-data="{&quot;index&quot;:null}" fill="#debb66"/><path d="M231.49568,179.62704v-2.64892h5.97611v2.64892z" data-paper-data="{&quot;index&quot;:null}" fill="#debb66"/><path d="M250.67561,189.36061v-2.64892h5.97611v2.64892z" data-paper-data="{&quot;index&quot;:null}" fill="#debb66"/><path d="M221.7124,194.52915v-2.64892h5.97611v2.64892z" data-paper-data="{&quot;index&quot;:null}" fill="#debb66"/><path d="M231.56741,183.27186v-2.64892h5.97611v2.64892z" data-paper-data="{&quot;index&quot;:null}" fill="#debb66"/><path d="M241.12151,194.61251v-2.64892h5.97611v2.64892z" data-paper-data="{&quot;index&quot;:null}" fill="#debb66"/><path d="M221.56195,199.94777v-2.64892h5.97611v2.64892z" data-paper-data="{&quot;index&quot;:null}" fill="#debb66"/><path d="M231.41696,199.86441v-2.64892h5.97611v2.64892z" data-paper-data="{&quot;index&quot;:null}" fill="#debb66"/><path d="M240.97106,200.03114v-2.64892h5.97611v2.64892z" data-paper-data="{&quot;index&quot;:null}" fill="#debb66"/><path d="M250.82607,199.94777v-2.64892h5.97611v2.64892z" data-paper-data="{&quot;index&quot;:null}" fill="#debb66"/><path d="M234.88666,174.91986v2.08545h-4.97917v-2.08545z" data-paper-data="{&quot;index&quot;:null}" fill="#8c773c"/><path d="M251.23783,189.49035v2.08545h-4.97917v-2.08545z" data-paper-data="{&quot;index&quot;:null}" fill="#8c773c"/><path d="M231.97918,193.2417v2.08545h-4.97917v-2.08545z" data-paper-data="{&quot;index&quot;:null}" fill="#8c773c"/><path d="M241.75896,193.49178v2.08545h-4.97917v-2.08545z" data-paper-data="{&quot;index&quot;:null}" fill="#8c773c"/><path d="M231.82872,180.98728v2.08545h-4.97917v-2.08545z" data-paper-data="{&quot;index&quot;:null}" fill="#8c773c"/><path d="M251.08737,181.154v2.08545h-4.97917v-2.08545z" data-paper-data="{&quot;index&quot;:null}" fill="#8c773c"/><path d="M241.60851,185.15544v2.08545h-4.97917v-2.08545z" data-paper-data="{&quot;index&quot;:null}" fill="#8c773c"/><path d="M251.08737,185.07208v2.08545h-4.97917v-2.08545z" data-paper-data="{&quot;index&quot;:null}" fill="#8c773c"/><path d="M241.45805,173.06775v2.08545h-4.97917v-2.08545z" data-paper-data="{&quot;index&quot;:null}" fill="#8c773c"/><path d="M250.93692,172.98439v2.08545h-4.97917v-2.08545z" data-paper-data="{&quot;index&quot;:null}" fill="#8c773c"/><path d="M250.93692,176.90247v2.08545h-4.97917v-2.08545z" data-paper-data="{&quot;index&quot;:null}" fill="#8c773c"/><path d="M241.30758,164.7314v2.08545h-4.97917v-2.08545z" data-paper-data="{&quot;index&quot;:null}" fill="#8c773c"/><path d="M250.78645,164.64804v2.08545h-4.97917v-2.08545z" data-paper-data="{&quot;index&quot;:null}" fill="#8c773c"/><path d="M231.84018,169.43785v2.08545h-4.97917v-2.08545z" data-paper-data="{&quot;index&quot;:null}" fill="#8c773c"/><path d="M241.30758,168.64948v2.08545h-4.97917v-2.08545z" data-paper-data="{&quot;index&quot;:null}" fill="#8c773c"/><path d="M226.03576,162.59822v2.08545h-4.97917v-2.08545z" data-paper-data="{&quot;index&quot;:null}" fill="#8c773c"/><path d="M228.98857,183.63513v-2.64892h5.97611v2.64892z" data-paper-data="{&quot;index&quot;:null}" fill="#debb66"/><path d="M227.84318,189.63513v-2.64892h5.97611v2.64892z" data-paper-data="{&quot;index&quot;:null}" fill="#debb66"/><path d="M252.93749,197.13513v-2.64892h5.97611v2.64892z" data-paper-data="{&quot;index&quot;:null}" fill="#6f6e2b"/><path d="M233.36184,185.13513v-2.64892h5.97611v2.64892z" data-paper-data="{&quot;index&quot;:null}" fill="#6f6e2b"/><path d="M228.98857,172.32744v-2.64892h5.97611v2.64892z" data-paper-data="{&quot;index&quot;:null}" fill="#6f6e2b"/><path d="M251.27147,173.82744v-2.64892h5.97611v2.64892z" data-paper-data="{&quot;index&quot;:null}" fill="#6f6e2b"/><path d="M223.46991,197.01975v-2.64892h5.97611v2.64892z" data-paper-data="{&quot;index&quot;:null}" fill="#6f6e2b"/><path d="M233.88248,163.90437v-2.64892h5.97611v2.64892z" data-paper-data="{&quot;index&quot;:null}" fill="#6f6e2b"/><path d="M240.0259,173.94283v-2.64892h5.97611v2.64892z" data-paper-data="{&quot;index&quot;:null}" fill="#6f6e2b"/><path d="M247.45241,180.55055l1.88196,-0.003l0.00716,5.51755l-1.88196,0.003z" data-paper-data="{&quot;index&quot;:null}" fill="#8c773c"/><path d="M223.81458,200.55593l-2.39045,0.00381l-0.0086,-6.62228l2.39045,-0.00381z" data-paper-data="{&quot;index&quot;:null}" fill="#debb66"/><path d="M223.72517,189.63544l-2.39045,0.00381l-0.0086,-6.62228l2.39045,-0.00381z" data-paper-data="{&quot;index&quot;:null}" fill="#debb66"/><path d="M223.86188,179.04807l-2.39045,0.00381l-0.0086,-6.62228l2.39045,-0.00381z" data-paper-data="{&quot;index&quot;:null}" fill="#debb66"/><path d="M223.77246,168.12759l-2.39045,0.00381l-0.0086,-6.62228l2.39045,-0.00381z" data-paper-data="{&quot;index&quot;:null}" fill="#debb66"/><path d="M234.99176,189.02298l-2.39045,0.00381l-0.0086,-6.62228l2.39045,-0.00381z" data-paper-data="{&quot;index&quot;:null}" fill="#debb66"/><path d="M234.23671,188.74696l-2.39045,0.00381l-0.0086,-6.62228l2.39045,-0.00381z" data-paper-data="{&quot;index&quot;:null}" fill="#debb66"/><path d="M246.52261,186.67028l-2.39045,0.00381l-0.0086,-6.62228l2.39045,-0.00381z" data-paper-data="{&quot;index&quot;:null}" fill="#debb66"/><path d="M228.66257,168.28651l-2.39045,0.00381l-0.0086,-6.62228l2.39045,-0.00381z" data-paper-data="{&quot;index&quot;:null}" fill="#debb66"/><path d="M233.36844,200.37398l-2.39045,0.00381l-0.0086,-6.62228l2.39045,-0.00381z" data-paper-data="{&quot;index&quot;:null}" fill="#debb66"/><path d="M239.45384,179.53948l-2.39045,0.00381l-0.0086,-6.62228l2.39045,-0.00381z" data-paper-data="{&quot;index&quot;:null}" fill="#debb66"/><path d="M233.41575,178.8661l-2.39045,0.00381l-0.0086,-6.62228l2.39045,-0.00381z" data-paper-data="{&quot;index&quot;:null}" fill="#debb66"/><path d="M233.32635,167.94562l-2.39045,0.00381l-0.0086,-6.62228l2.39045,-0.00381z" data-paper-data="{&quot;index&quot;:null}" fill="#debb66"/><path d="M238.16914,189.61241l-2.39045,0.00381l-0.0086,-6.62228l2.39045,-0.00381z" data-paper-data="{&quot;index&quot;:null}" fill="#debb66"/><path d="M238.21645,168.10456l-2.39045,0.00381l-0.0086,-6.62228l2.39045,-0.00381z" data-paper-data="{&quot;index&quot;:null}" fill="#debb66"/><path d="M242.62194,200.60931l-2.39045,0.00381l-0.0086,-6.62228l2.39045,-0.00381z" data-paper-data="{&quot;index&quot;:null}" fill="#debb66"/><path d="M242.53254,189.68882l-2.39045,0.00381l-0.0086,-6.62228l2.39045,-0.00381z" data-paper-data="{&quot;index&quot;:null}" fill="#debb66"/><path d="M242.66926,179.10144l-2.39045,0.00381l-0.0086,-6.62228l2.39045,-0.00381z" data-paper-data="{&quot;index&quot;:null}" fill="#debb66"/><path d="M238.71374,189.60768l-2.39045,0.00381l-0.0086,-6.62228l2.39045,-0.00381z" data-paper-data="{&quot;index&quot;:null}" fill="#debb66"/><path d="M247.46993,168.33989l-2.39045,0.00381l-0.0086,-6.62228l2.39045,-0.00381z" data-paper-data="{&quot;index&quot;:null}" fill="#debb66"/><path d="M252.17581,200.42736l-2.39045,0.00381l-0.0086,-6.62228l2.39045,-0.00381z" data-paper-data="{&quot;index&quot;:null}" fill="#debb66"/><path d="M242.0028,189.52296l-2.39045,0.00381l-0.0086,-6.62228l2.39045,-0.00381z" data-paper-data="{&quot;index&quot;:null}" fill="#debb66"/><path d="M252.22312,178.91948l-2.39045,0.00381l-0.0086,-6.62228l2.39045,-0.00381z" data-paper-data="{&quot;index&quot;:null}" fill="#debb66"/><path d="M257.06591,200.58627l-2.39045,0.00381l-0.0086,-6.62228l2.39045,-0.00381z" data-paper-data="{&quot;index&quot;:null}" fill="#debb66"/><path d="M256.9765,189.6658l-2.39045,0.00381l-0.0086,-6.62228l2.39045,-0.00381z" data-paper-data="{&quot;index&quot;:null}" fill="#debb66"/><path d="M257.11322,179.07841l-2.39045,0.00381l-0.0086,-6.62228l2.39045,-0.00381z" data-paper-data="{&quot;index&quot;:null}" fill="#debb66"/><path d="M257.02382,168.15793l-2.39045,0.00381l-0.0086,-6.62228l2.39045,-0.00381z" data-paper-data="{&quot;index&quot;:null}" fill="#debb66"/><path d="M234.46099,185.85682l1.88196,-0.003l0.00716,5.51755l-1.88196,0.003z" data-paper-data="{&quot;index&quot;:null}" fill="#8c773c"/><path d="M247.58621,167.7167l1.88196,-0.003l0.00716,5.51755l-1.88196,0.003z" data-paper-data="{&quot;index&quot;:null}" fill="#8c773c"/><path d="M250.99921,189.05231l1.88196,-0.003l0.00716,5.51755l-1.88196,0.003z" data-paper-data="{&quot;index&quot;:null}" fill="#8c773c"/><path d="M251.21083,178.21472l1.88196,-0.003l0.00716,5.51755l-1.88196,0.003z" data-paper-data="{&quot;index&quot;:null}" fill="#8c773c"/><path d="M239.94077,189.23668l1.88196,-0.003l0.00716,5.51755l-1.88196,0.003z" data-paper-data="{&quot;index&quot;:null}" fill="#8c773c"/><path d="M240.06351,167.89543l1.88196,-0.003l0.00716,5.51755l-1.88196,0.003z" data-paper-data="{&quot;index&quot;:null}" fill="#8c773c"/><path d="M243.68814,178.39344l1.88196,-0.003l0.00716,5.51755l-1.88196,0.003z" data-paper-data="{&quot;index&quot;:null}" fill="#8c773c"/><path d="M243.59928,167.88979l1.88196,-0.003l0.00716,5.51755l-1.88196,0.003z" data-paper-data="{&quot;index&quot;:null}" fill="#8c773c"/><path d="M232.78015,178.57756l1.88196,-0.003l0.00716,5.51755l-1.88196,0.003z" data-paper-data="{&quot;index&quot;:null}" fill="#8c773c"/><path d="M232.69129,168.07389l1.88196,-0.003l0.00716,5.51755l-1.88196,0.003z" data-paper-data="{&quot;index&quot;:null}" fill="#8c773c"/><path d="M236.22705,168.06826l1.88196,-0.003l0.00716,5.51755l-1.88196,0.003z" data-paper-data="{&quot;index&quot;:null}" fill="#8c773c"/><path d="M225.25746,178.75628l1.88196,-0.003l0.00716,5.51755l-1.88196,0.003z" data-paper-data="{&quot;index&quot;:null}" fill="#8c773c"/><path d="M225.1686,168.25262l1.88196,-0.003l0.00716,5.51755l-1.88196,0.003z" data-paper-data="{&quot;index&quot;:null}" fill="#8c773c"/><path d="M229.5183,189.2406l1.88196,-0.003l0.00716,5.51755l-1.88196,0.003z" data-paper-data="{&quot;index&quot;:null}" fill="#8c773c"/><path d="M228.79323,178.75065l1.88196,-0.003l0.00716,5.51755l-1.88196,0.003z" data-paper-data="{&quot;index&quot;:null}" fill="#8c773c"/><path d="M223.35441,195.68246l1.88196,-0.003l0.00716,5.51755l-1.88196,0.003z" data-paper-data="{&quot;index&quot;:null}" fill="#8c773c"/><path d="M242.33434,192.38012l-2.39045,0.00381l-0.0086,-6.62228l2.39045,-0.00381z" data-paper-data="{&quot;index&quot;:null}" fill="#debb66"/><path d="M247.75052,193.64072l-2.39045,0.00381l-0.0086,-6.62228l2.39045,-0.00381z" data-paper-data="{&quot;index&quot;:null}" fill="#debb66"/><path d="M254.48258,165.82227l-2.39045,0.00381l-0.0086,-6.62228l2.39045,-0.00381z" data-paper-data="{&quot;index&quot;:null}" fill="#6f6e2b"/><path d="M243.68168,187.53181l-2.39045,0.00381l-0.0086,-6.62228l2.39045,-0.00381z" data-paper-data="{&quot;index&quot;:null}" fill="#6f6e2b"/><path d="M232.13002,192.39639l-2.39045,0.00381l-0.0086,-6.62228l2.39045,-0.00381z" data-paper-data="{&quot;index&quot;:null}" fill="#6f6e2b"/><path d="M233.4516,167.70195l-2.39045,0.00381l-0.0086,-6.62228l2.39045,-0.00381z" data-paper-data="{&quot;index&quot;:null}" fill="#6f6e2b"/><path d="M254.42086,198.47625l-2.39045,0.00381l-0.0086,-6.62228l2.39045,-0.00381z" data-paper-data="{&quot;index&quot;:null}" fill="#6f6e2b"/><path d="M224.52182,186.98544l-2.39045,0.00381l-0.0086,-6.62228l2.39045,-0.00381z" data-paper-data="{&quot;index&quot;:null}" fill="#6f6e2b"/><path d="M233.57191,180.16332l-2.39045,0.00381l-0.0086,-6.62228l2.39045,-0.00381z" data-paper-data="{&quot;index&quot;:null}" fill="#6f6e2b"/></g></g></svg>