<svg version="1.1" xmlns="http://www.w3.org/2000/svg" xmlns:xlink="http://www.w3.org/1999/xlink" width="313.89623" height="158.92534" viewBox="0,0,313.89623,158.92534"><g transform="translate(-55.41153,-129.99202)"><g data-paper-data="{&quot;isPaintingLayer&quot;:true}" fill="#754730" fill-rule="nonzero" stroke="none" stroke-width="0" stroke-linecap="butt" stroke-linejoin="miter" stroke-miterlimit="10" stroke-dasharray="" stroke-dashoffset="0" style="mix-blend-mode: normal"><path d="M360.24656,274.54022c-10.52392,17.11816 -92.06323,9.91645 -163.20569,-33.82057c-71.14247,-43.73702 -150.83176,-42.83499 -140.30784,-59.95315c10.52392,-17.11817 40.52559,-67.21927 111.66806,-23.48225c26.10407,16.04828 72.61902,28.90813 98.37345,31.7206c60.78753,6.6382 84.79883,89.07545 78.13642,99.91251z"/><path d="M361.20504,277.41565c-10.52392,17.11816 -93.0217,7.04103 -164.16416,-36.69599c-71.14247,-43.73702 -146.07981,-38.76189 -135.55589,-55.88005c10.52392,-17.11817 35.77364,-71.29237 106.91611,-27.55535c26.10407,16.04828 72.61902,28.90813 98.37345,31.7206c60.78753,6.6382 84.79883,89.07545 78.13642,99.91251z"/><path d="M363.81183,245.01978c-4.7128,19.53392 -74.3445,19.49153 -155.52675,-0.09467c-81.18225,-19.58621 -143.173,-51.29933 -138.4602,-70.83325c4.7128,-19.53392 4.23441,-19.23762 85.41666,0.34859c29.78794,7.1867 77.99951,5.02783 103.36084,-0.26401c59.85971,-12.4902 108.193,58.47694 105.20945,70.84335z"/><path d="M367.5643,197.97766c1.53655,20.03556 -64.7191,41.45434 -147.98614,47.84019c-83.26704,6.38585 -152.01392,-4.67942 -153.55047,-24.71498c-1.53655,-20.03556 -1.90034,-19.60625 81.3667,-25.99209c30.5529,-2.34314 75.75259,-19.25478 98.2487,-32.10491c53.09699,-30.32985 120.94846,22.28782 121.92121,34.9718z"/><path d="M360.64356,162.9819c6.18623,19.11845 -53.2103,55.45889 -132.66586,81.16865c-79.45556,25.70976 -149.84043,14.759 -156.02666,-4.35945c-6.18623,-19.11845 -5.48088,-2.3218 73.97469,-28.03155c29.15437,-9.4336 69.13615,-36.46086 87.99702,-54.22228c44.51683,-41.92186 122.80447,-6.65874 126.72081,5.44464z"/><path d="M360.41528,279.34479c-3.86938,4.90433 -15.14883,7.78311 -30.82695,7.86758c-34.75313,0.18723 -91.11962,-13.35565 -136.30015,-49.00184c-65.56276,-51.7272 -121.52014,-52.81986 -109.07364,-68.59544c12.4465,-15.77559 24.78621,-69.33553 90.34896,-17.60833c24.05672,18.98009 68.7568,37.17129 94.00821,42.96496c59.60028,13.67465 99.72311,74.38597 91.84357,84.37307z"/><path d="M355.6229,269.76004c-12.4465,15.77558 -96.77197,20.17768 -162.33472,-31.54951c-65.56276,-51.7272 -133.06059,-39.24286 -120.61409,-55.01844c12.4465,-15.77559 36.32666,-82.91253 101.88941,-31.18533c24.05672,18.98009 68.7568,37.17129 94.00821,42.96496c59.60028,13.67465 94.93073,64.80122 87.05119,74.78832z"/><path d="M358.42262,261.90994c-6.95638,18.85188 -76.10901,10.69779 -154.45672,-18.21265c-78.34771,-28.91045 -136.22182,-67.62946 -129.26544,-86.48134c6.95638,-18.85188 6.44673,-18.61333 84.79444,10.29712c28.74787,10.60801 76.88267,14.08042 102.6878,11.77917c29.30629,-2.61348 79.50751,-39.9767 96.45227,-21.06495c10.17857,11.36012 12.3753,40.31772 9.52395,64.8117c-2.26709,19.47505 -8.72425,36.1283 -9.73629,38.87096z"/><path d="M367.62987,215.62529c-0.80802,20.07814 -69.10779,33.6324 -152.55179,30.27428c-83.44401,-3.35811 -150.43369,-22.35694 -149.62567,-42.43508c0.80802,-20.07814 0.3967,-19.69414 83.8407,-16.33601c30.61783,1.23218 77.47993,-10.29861 101.31988,-20.44048c56.26883,-23.93761 117.52841,36.22637 117.01687,48.9373z"/><path d="M364.83321,180.06158c3.91684,19.70896 -59.30886,48.88235 -141.21854,65.1606c-81.90968,16.27825 -151.48583,13.49712 -155.40267,-6.21184c-3.91684,-19.70896 -4.22679,-19.2393 77.6829,-35.51754c30.05485,-5.97293 72.91303,-28.15834 93.71465,-43.60156c49.09754,-36.45027 122.74401,7.69313 125.22366,20.17034z"/><path d="M352.7261,270.56621c-9.86811,17.50442 -81.63389,11.86685 -154.38163,-29.14464c-72.74775,-41.01149 -136.61992,-30.74576 -126.75182,-48.25018c9.86811,-17.50443 22.22514,-75.05228 94.97289,-34.04079c26.69309,15.04821 73.66168,26.13732 99.50414,27.97245c60.99531,4.33142 88.11128,85.80023 81.86405,96.88182z"/><path d="M347.93372,281.10944c-2.32301,4.12065 -7.81058,6.37459 -15.79306,6.87735c-25.92694,1.63293 -78.17371,-15.20809 -133.79619,-46.56522c-47.01913,-26.507 -100.64252,9.12897 -127.14569,1.71352c-14.5024,-4.0577 -18.03087,-51.91912 -14.54083,-58.10989c9.86811,-17.50443 37.15984,-66.90608 109.90759,-25.89459c26.69309,15.04821 73.66168,26.13732 99.50414,27.97245c60.99531,4.33142 88.11128,85.80023 81.86405,96.88182z"/><path d="M365.15865,239.40301c-3.96967,19.69838 -73.55303,22.29297 -155.41877,5.79518c-81.86574,-16.4978 -145.01299,-45.84059 -141.04332,-65.53897c3.96967,-19.69838 3.50285,-19.38418 85.36859,-2.88638c30.03873,6.05348 78.13396,2.07039 103.2767,-4.17809c59.34377,-14.74812 110.3299,54.33774 107.81681,66.80826z"/><path d="M367.12695,192.25253c2.29419,19.963 -63.10281,43.87551 -146.06829,53.41009c-82.96548,9.53458 -152.08208,1.08069 -154.37628,-18.88231c-2.29419,-19.963 -2.64147,-19.52022 80.32401,-29.0548c30.44225,-3.49849 74.96908,-22.10971 96.96242,-35.80255c51.91031,-32.31887 121.70574,17.69153 123.15813,30.32957z"/><path d="M358.88589,157.54397c6.9058,18.87046 -51.07191,57.43418 -129.49685,86.13447c-78.42494,28.70029 -149.51613,14.624 -156.42193,-4.24646c-6.9058,-18.87046 -5.22277,3.68627 73.20218,-25.01401c28.77621,-10.5309 67.70579,-39.05288 85.88051,-57.51582c42.89732,-43.57763 122.46421,-11.30456 126.8361,0.64183z"/><path d="M338.08592,176.59309c0,24.55716 -56.53126,44.46468 -126.2661,44.46468c-69.73484,0 -126.2661,-19.90751 -126.2661,-44.46468c0,-24.55716 56.53126,-44.46468 126.2661,-44.46468c69.73484,0 126.2661,19.90751 126.2661,44.46468z"/><path d="M331.8294,270.73985c-0.64656,5.47872 -3.90584,8.569 -9.31639,9.97954c-18.67391,4.86831 -62.97386,-10.27264 -113.92766,-16.28582c-65.71708,-7.75543 -117.61663,2.6093 -114.73856,-21.77863c2.87808,-24.38793 58.48544,-37.87123 124.20252,-30.1158c65.71708,7.75543 116.65816,33.81278 113.78008,58.2007z"/></g></g></svg>