<svg version="1.1" xmlns="http://www.w3.org/2000/svg" xmlns:xlink="http://www.w3.org/1999/xlink" width="600.59189" height="447.46154" viewBox="0,0,600.59189,447.46154"><g transform="translate(48.34295,33.01911)"><g data-paper-data="{&quot;isPaintingLayer&quot;:true}" fill-rule="nonzero" stroke="none" stroke-width="0" stroke-linecap="butt" stroke-linejoin="miter" stroke-miterlimit="10" stroke-dasharray="" stroke-dashoffset="0" style="mix-blend-mode: normal"><path d="M194.5,304.88697v57h-99v-57z" data-paper-data="{&quot;index&quot;:null}" fill="#9ef160"/><path d="M289.09459,304.88697v57h-193.59459v-57z" data-paper-data="{&quot;index&quot;:null}" fill="#57caf2"/><path d="M479.5,145.88697v57h-99v-57z" data-paper-data="{&quot;index&quot;:null}" fill="#57caf2"/><path d="M479.5,250.88696v57h-99v-57z" data-paper-data="{&quot;index&quot;:null}" fill="#9ef160"/><path d="M1.42433,279.98136v57h-49.76728v-57z" data-paper-data="{&quot;index&quot;:null}" fill="#57caf2"/><path d="M479.5,250.88696v57h-99v-57z" data-paper-data="{&quot;index&quot;:null}" fill="#57caf2"/><path d="M479.5,199.88697v57h-99v-57z" data-paper-data="{&quot;index&quot;:null}" fill="#9ef160"/><path d="M479.5,-9.11302v57h-99v-57z" data-paper-data="{&quot;index&quot;:null}" fill="#9ef160"/><path d="M479.5,304.88697v57h-99v-57z" data-paper-data="{&quot;index&quot;:null}" fill="#9ef160"/><path d="M479.5,199.88697v57h-99v-57z" data-paper-data="{&quot;index&quot;:null}" fill="#57caf2"/><path d="M479.5,-9.11302v59.16057h-99v-59.16057z" data-paper-data="{&quot;index&quot;:null}" fill="#57caf2"/><path d="M479.5,304.88697v57h-99v-57z" data-paper-data="{&quot;index&quot;:null}" fill="#57caf2"/><path d="M97.5,304.88697v57h-99v-57z" data-paper-data="{&quot;index&quot;:null}" fill="#9ef160"/><path d="M97.5,304.88697v57h-99v-57z" data-paper-data="{&quot;index&quot;:null}" fill="#57caf2"/><path d="M382.5,250.88696v57h-99v-57z" data-paper-data="{&quot;index&quot;:null}" fill="#9ef160"/><path d="M382.5,250.88696v57h-99v-57z" data-paper-data="{&quot;index&quot;:null}" fill="#57caf2"/><path d="M382.5,199.88697v57h-99v-57z" data-paper-data="{&quot;index&quot;:null}" fill="#9ef160"/><path d="M382.5,304.88697v57h-99v-57z" data-paper-data="{&quot;index&quot;:null}" fill="#9ef160"/><path d="M382.5,199.88697v57h-99v-57z" data-paper-data="{&quot;index&quot;:null}" fill="#57caf2"/><path d="M382.5,304.88697v57h-99v-57z" data-paper-data="{&quot;index&quot;:null}" fill="#57caf2"/><path d="M382.63357,412.01935v-307.73077h169.61538v307.73077z" fill="#57caf2"/><path d="M284.09511,414.44243v-215.65385h126.80769v215.65385z" fill="#57caf2"/><path d="M-21.05269,399.90397v-94.5h301.26923v94.5z" fill="#57caf2"/><path d="M382.63357,49.36551v-82.38462h120.34615v82.38462z" fill="#57caf2"/><path d="M141.13552,309.8296l-11.59069,59.04542h-131.04483v-89.72664z" data-paper-data="{&quot;index&quot;:null}" fill="#57caf2"/></g></g></svg>