<svg version="1.1" xmlns="http://www.w3.org/2000/svg" xmlns:xlink="http://www.w3.org/1999/xlink" width="572.34867" height="473.21691" viewBox="0,0,572.34867,473.21691"><g transform="translate(71.17232,44.47515)"><g data-paper-data="{&quot;isPaintingLayer&quot;:true}" fill-rule="nonzero" stroke="none" stroke-width="0" stroke-linecap="butt" stroke-linejoin="miter" stroke-miterlimit="10" stroke-dasharray="" stroke-dashoffset="0" style="mix-blend-mode: normal"><path d="M480.5,308.5v57h-99v-57z" data-paper-data="{&quot;index&quot;:null}" fill="#9ef160"/><path d="M98.5,149.5v57h-99v-57z" data-paper-data="{&quot;index&quot;:null}" fill="#9ef160"/><path d="M98.5,45.5v57h-99v-57z" data-paper-data="{&quot;index&quot;:null}" fill="#9ef160"/><path d="M98.5,149.5v58.7476h-99v-58.7476z" data-paper-data="{&quot;index&quot;:null}" fill="#57caf2"/><path d="M98.5,45.5v57h-99v-57z" data-paper-data="{&quot;index&quot;:null}" fill="#57caf2"/><path d="M98.5,-5.5v57h-99v-57z" data-paper-data="{&quot;index&quot;:null}" fill="#9ef160"/><path d="M98.5,308.5v57h-99v-57z" data-paper-data="{&quot;index&quot;:null}" fill="#9ef160"/><path d="M98.5,99.5v57h-99v-57z" data-paper-data="{&quot;index&quot;:null}" fill="#9ef160"/><path d="M98.5,-44.47515v95.97515h-99v-95.97515z" data-paper-data="{&quot;index&quot;:null}" fill="#57caf2"/><path d="M98.5,99.5v57h-99v-57z" data-paper-data="{&quot;index&quot;:null}" fill="#57caf2"/><path d="M501.17635,277.83558v150.90618h-149.1832v-150.90618z" data-paper-data="{&quot;index&quot;:null}" fill="#57caf2"/><path d="M122.36317,264.86449c4.04788,9.87277 1.36361,68.88253 1.36361,68.88253v31.75299h-124.22678v-57h60.1626c0,0 20.04229,-27.39575 37.49928,-39.54468c17.45698,-12.14893 21.15341,-13.96361 25.2013,-4.09084z" data-paper-data="{&quot;index&quot;:null}" fill="#57caf2"/><path d="M124.57126,308.75208v111.52046h-195.74358v-111.52046z" data-paper-data="{&quot;index&quot;:null}" fill="#57caf2"/></g></g></svg>