<svg version="1.1" xmlns="http://www.w3.org/2000/svg" xmlns:xlink="http://www.w3.org/1999/xlink" width="539.17013" height="425.00507" viewBox="0,0,539.17013,425.00507"><g transform="translate(45.84593,5.5)"><g data-paper-data="{&quot;isPaintingLayer&quot;:true}" fill-rule="nonzero" stroke="none" stroke-width="0" stroke-linecap="butt" stroke-linejoin="miter" stroke-miterlimit="10" stroke-dasharray="" stroke-dashoffset="0" style="mix-blend-mode: normal"><path d="M191.5,51.5v-57h99v57z" data-paper-data="{&quot;index&quot;:null}" fill="#9ef160"/><path d="M191.5,51.5v-57h99v57z" data-paper-data="{&quot;index&quot;:null}" fill="#57caf2"/><path d="M284.5,105.5v-57h99v57z" data-paper-data="{&quot;index&quot;:null}" fill="#57caf2"/><path d="M284.5,156.5v-57h99v57z" data-paper-data="{&quot;index&quot;:null}" fill="#9ef160"/><path d="M284.5,51.5v-57h99v57z" data-paper-data="{&quot;index&quot;:null}" fill="#9ef160"/><path d="M284.5,156.5v-57h99v57z" data-paper-data="{&quot;index&quot;:null}" fill="#57caf2"/><path d="M284.5,51.5v-57h99v57z" data-paper-data="{&quot;index&quot;:null}" fill="#57caf2"/><path d="M-0.5,51.5v-57h99v57z" data-paper-data="{&quot;index&quot;:null}" fill="#9ef160"/><path d="M-45.84593,51.5v-57h144.34593v57z" data-paper-data="{&quot;index&quot;:null}" fill="#57caf2"/><path d="M381.5,210.5v-57h99v57z" data-paper-data="{&quot;index&quot;:null}" fill="#9ef160"/><path d="M381.5,105.5v-57h99v57z" data-paper-data="{&quot;index&quot;:null}" fill="#9ef160"/><path d="M381.5,210.5v-57h99v57z" data-paper-data="{&quot;index&quot;:null}" fill="#57caf2"/><path d="M381.5,105.5v-57h99v57z" data-paper-data="{&quot;index&quot;:null}" fill="#57caf2"/><path d="M386.00069,401.27944v-144.48223h98.56701v144.48223z" data-paper-data="{&quot;index&quot;:null}" fill="#57caf2"/><path d="M381.5,156.5v-57h99v57z" data-paper-data="{&quot;index&quot;:null}" fill="#9ef160"/><path d="M381.5,51.5v-57h99v57z" data-paper-data="{&quot;index&quot;:null}" fill="#9ef160"/><path d="M381.5,260.5v-57h99v57z" data-paper-data="{&quot;index&quot;:null}" fill="#9ef160"/><path d="M381.5,156.5v-57h99v57z" data-paper-data="{&quot;index&quot;:null}" fill="#57caf2"/><path d="M381.5,51.5v-57h99v57z" data-paper-data="{&quot;index&quot;:null}" fill="#57caf2"/><path d="M381.5,260.5v-57h99v57z" data-paper-data="{&quot;index&quot;:null}" fill="#57caf2"/><path d="M96.5,105.5v-57h99v57z" data-paper-data="{&quot;index&quot;:null}" fill="#9ef160"/><path d="M96.5,105.5v-57h99v57z" data-paper-data="{&quot;index&quot;:null}" fill="#57caf2"/><path d="M96.5,51.5v-57h99v57z" data-paper-data="{&quot;index&quot;:null}" fill="#9ef160"/><path d="M96.5,51.5v-57h99v57z" data-paper-data="{&quot;index&quot;:null}" fill="#57caf2"/><path d="M381.50001,206.44732v-57h99v57z" data-paper-data="{&quot;index&quot;:null}" fill="#9ef160"/><path d="M381.50001,206.44732v-57h99v57z" data-paper-data="{&quot;index&quot;:null}" fill="#57caf2"/><path d="M493.3242,149.23347v270.2716h-113.5034l-0.22955,-270.27159z" data-paper-data="{&quot;index&quot;:null}" fill="#57caf2"/></g></g></svg>