<svg version="1.1" xmlns="http://www.w3.org/2000/svg" xmlns:xlink="http://www.w3.org/1999/xlink" width="2316.98839" height="1734.1671" viewBox="0,0,2316.98839,1734.1671"><g transform="translate(918.49417,687.08355)"><g stroke="none" stroke-width="0" stroke-miterlimit="10"><path d="M-918.49416,1047.08355v-1734.1671h2316.98839v1734.1671zM243.52003,259.81168c41.95993,-1.27527 75.61346,-39.30701 76.29167,-78.30311c0.71207,-40.94316 -37.34157,-77.29739 -77.29739,-77.29739c-37.94438,0 -77.60782,36.29015 -78.30311,75.28595c-0.71207,39.93744 35.3341,81.65105 79.30882,80.31454z" fill="#000000"/><path d="M163.48429,180c0,-22.6907 12.82392,-42.64601 29.77582,-56.92073c6.60936,-5.56556 14.10548,-9.14893 21.74282,-12.59662c7.81665,-3.52863 15.80074,-6.85659 24.85531,-6.85659c4.32745,0 9.54563,0.61283 13.91331,1.10858c9.47014,1.07491 18.80414,4.76286 27.0015,9.53335c23.48522,13.66733 39.97759,40.49331 39.97759,67.37509c0,14.12459 -4.48075,26.02961 -10.36895,37.23959c-6.77767,12.90336 -15.95402,24.4854 -31.13982,30.84781c-9.53584,3.99524 -18.08359,9.92962 -39.38363,9.92962c-40.59213,0 -76.37394,-39.06796 -76.37394,-79.66009z" fill-opacity="0.81176" fill="#000000"/></g></g></svg>