<svg version="1.1" xmlns="http://www.w3.org/2000/svg" xmlns:xlink="http://www.w3.org/1999/xlink" width="602.53845" height="531.71706" viewBox="0,0,602.53845,531.71706"><g transform="translate(26.86643,83.90372)"><g data-paper-data="{&quot;isPaintingLayer&quot;:true}" fill-rule="nonzero" stroke="none" stroke-width="0" stroke-linecap="butt" stroke-linejoin="miter" stroke-miterlimit="10" stroke-dasharray="" stroke-dashoffset="0" style="mix-blend-mode: normal"><path d="M189.5,105.5v-57h99v57z" data-paper-data="{&quot;index&quot;:null}" fill="#9ef160"/><path d="M189.5,105.5v-57h99v57z" data-paper-data="{&quot;index&quot;:null}" fill="#57caf2"/><path d="M189.5,51.5v-57h99v57z" data-paper-data="{&quot;index&quot;:null}" fill="#9ef160"/><path d="M189.5,51.5v-57h99v57z" data-paper-data="{&quot;index&quot;:null}" fill="#57caf2"/><path d="M96.5,51.5v-57h99v57z" data-paper-data="{&quot;index&quot;:null}" fill="#9ef160"/><path d="M96.5,51.5v-57h99v57z" data-paper-data="{&quot;index&quot;:null}" fill="#57caf2"/><path d="M381.5,210.5v-57h99v57z" data-paper-data="{&quot;index&quot;:null}" fill="#9ef160"/><path d="M381.5,105.5v-57h99v57z" data-paper-data="{&quot;index&quot;:null}" fill="#9ef160"/><path d="M381.5,314.5v-57h99v57z" data-paper-data="{&quot;index&quot;:null}" fill="#9ef160"/><path d="M381.5,210.5v-57h99v57z" data-paper-data="{&quot;index&quot;:null}" fill="#57caf2"/><path d="M381.5,105.5v-57h99v57z" data-paper-data="{&quot;index&quot;:null}" fill="#57caf2"/><path d="M381.5,314.5v-57h99v57z" data-paper-data="{&quot;index&quot;:null}" fill="#57caf2"/><path d="M381.5,156.5v-57h99v57z" data-paper-data="{&quot;index&quot;:null}" fill="#9ef160"/><path d="M381.5,365.5v-57h99v57z" data-paper-data="{&quot;index&quot;:null}" fill="#9ef160"/><path d="M381.5,51.5v-57h99v57z" data-paper-data="{&quot;index&quot;:null}" fill="#9ef160"/><path d="M381.5,260.5v-57h99v57z" data-paper-data="{&quot;index&quot;:null}" fill="#9ef160"/><path d="M381.5,156.5v-57h99v57z" data-paper-data="{&quot;index&quot;:null}" fill="#57caf2"/><path d="M381.5,365.5v-57h99v57z" data-paper-data="{&quot;index&quot;:null}" fill="#57caf2"/><path d="M381.5,51.5v-57h99v57z" data-paper-data="{&quot;index&quot;:null}" fill="#57caf2"/><path d="M381.5,260.5v-57h99v57z" data-paper-data="{&quot;index&quot;:null}" fill="#57caf2"/><path d="M-0.5,51.5v-57h99v57z" data-paper-data="{&quot;index&quot;:null}" fill="#9ef160"/><path d="M-0.5,51.5v-57h99v57z" data-paper-data="{&quot;index&quot;:null}" fill="#57caf2"/><path d="M284.5,105.5v-57h99v57z" data-paper-data="{&quot;index&quot;:null}" fill="#9ef160"/><path d="M284.5,105.5v-57h99v57z" data-paper-data="{&quot;index&quot;:null}" fill="#57caf2"/><path d="M284.5,156.5v-57h99v57z" data-paper-data="{&quot;index&quot;:null}" fill="#9ef160"/><path d="M284.5,51.5v-57h99v57z" data-paper-data="{&quot;index&quot;:null}" fill="#9ef160"/><path d="M284.5,156.5v-57h99v57z" data-paper-data="{&quot;index&quot;:null}" fill="#57caf2"/><path d="M284.5,51.5v-57h99v57z" data-paper-data="{&quot;index&quot;:null}" fill="#57caf2"/><path d="M-26.86643,50.98089v-97.73077h560.53846v97.73077z" fill="#57caf2"/><path d="M385.05664,447.81334v-505.06322h190.61538v505.06322z" fill="#57caf2"/><path d="M284.09511,154.36551v-236.65385h271.38462v236.65385z" fill="#57caf2"/><path d="M196.86434,98.63474v-182.53846h151.84615v182.53846z" fill="#57caf2"/></g></g></svg>