<svg version="1.1" xmlns="http://www.w3.org/2000/svg" xmlns:xlink="http://www.w3.org/1999/xlink" width="598.50001" height="467.65385" viewBox="0,0,598.50001,467.65385"><g transform="translate(32.31835,55.23065)"><g data-paper-data="{&quot;isPaintingLayer&quot;:true}" fill-rule="nonzero" stroke="none" stroke-width="0" stroke-linecap="butt" stroke-linejoin="miter" stroke-miterlimit="10" stroke-dasharray="" stroke-dashoffset="0" style="mix-blend-mode: normal"><path d="M392.52781,412.4232v-467.65385h173.65385v467.65385z" fill="#57caf2"/><path d="M-32.31835,406.76935v-97.73077h462v97.73077z" fill="#57caf2"/><path d="M157.49879,107.10226v-16.15385h18.67788v16.15385z" fill="#a26710"/><g><path d="M159.91278,98.06271c0.14309,-4.01921 3.69833,-7.15498 7.94083,-7.00394c4.2425,0.15104 7.56573,3.53171 7.42264,7.55092c-0.14309,4.01921 -3.69833,7.15498 -7.94083,7.00394c-4.2425,-0.15104 -7.56573,-3.53171 -7.42264,-7.55092z" fill="#ff771a"/><path d="M164.72645,96.85113c0.0636,-1.78632 1.56325,-3.18286 3.34956,-3.11927c1.78632,0.0636 3.18286,1.56326 3.11927,3.34957c-0.0636,1.78632 -1.56326,3.18285 -3.34957,3.11926c-1.78632,-0.0636 -3.18285,-1.56325 -3.11926,-3.34956z" fill="#dcb216"/></g></g></g></svg>