<svg version="1.1" xmlns="http://www.w3.org/2000/svg" xmlns:xlink="http://www.w3.org/1999/xlink" width="6.47818" height="40.61815" viewBox="0,0,6.47818,40.61815"><g transform="translate(-236.77889,-159.7239)"><g data-paper-data="{&quot;isPaintingLayer&quot;:true}" fill="#333333" fill-rule="nonzero" stroke="none" stroke-width="0" stroke-linecap="butt" stroke-linejoin="miter" stroke-miterlimit="10" stroke-dasharray="" stroke-dashoffset="0" style="mix-blend-mode: normal"><path d="M236.77889,196.17413v-32.34827h6.44224v32.34827z"/><path d="M236.79802,196.00526c0,-2.39516 1.44591,-4.3368 3.22951,-4.3368c1.78361,0 3.22953,1.94166 3.22953,4.3368c0,2.39516 -1.44591,4.3368 -3.22953,4.3368c-1.78361,0 -3.22951,-1.94166 -3.22951,-4.3368z"/><path d="M236.79803,164.06071c0,-2.39516 1.44591,-4.3368 3.22951,-4.3368c1.7836,0 3.22953,1.94167 3.22953,4.3368c0,2.39516 -1.44591,4.3368 -3.22953,4.3368c-1.7836,0 -3.22951,-1.94166 -3.22951,-4.3368z"/></g></g></svg>