<svg version="1.1" xmlns="http://www.w3.org/2000/svg" xmlns:xlink="http://www.w3.org/1999/xlink" width="578.35651" height="148.52108" viewBox="0,0,578.35651,148.52108"><g transform="translate(15.55874,-260.01224)"><g data-paper-data="{&quot;isPaintingLayer&quot;:true}" fill="#57caf2" fill-rule="nonzero" stroke="none" stroke-width="0" stroke-linecap="butt" stroke-linejoin="miter" stroke-miterlimit="10" stroke-dasharray="" stroke-dashoffset="0" style="mix-blend-mode: normal"><path d="M480.19135,310.96922l-0.41069,50.93407l-138.56381,-0.71934l-52.70823,-53.31698c0,0 11.49593,5.08844 21.35982,-1.65268c11.41281,-7.79967 27.54237,-17.68049 41.38137,-27.77719c9.91554,-7.23421 18.36435,-14.85584 25.61881,-17.54299c2.98628,-1.10616 6.02652,-1.11981 8.47936,-0.33008c2.52253,0.81217 2.17956,2.68731 3.23898,4.23746c1.96527,2.87561 4.23551,6.13985 6.70764,10.04843c1.40234,2.21718 1.86523,4.70978 5.9352,6.6509c10.74475,5.12457 24.65816,9.56563 37.53509,14.29398c21.92231,8.04977 41.42647,15.17443 41.42647,15.17443z" data-paper-data="{&quot;index&quot;:null}"/><path d="M383.5,308.71903v81.78523h-99l2.87737,-84.88163z" data-paper-data="{&quot;index&quot;:null}"/><path d="M-15.55874,405.29432v-96.65958h111.79695v96.65958z"/><path d="M480.19135,310.96923l-0.41069,50.93407l-138.56381,-0.71934l-52.70823,-53.31698c0,0 11.49593,5.08844 21.35982,-1.65268c11.41281,-7.79967 27.54237,-17.68049 41.38137,-27.77719c9.91554,-7.23421 18.36435,-14.85584 25.61881,-17.54299c2.98628,-1.10616 6.02652,-1.11981 8.47936,-0.33008c2.52253,0.81217 2.17956,2.68731 3.23898,4.23746c1.96527,2.87561 4.23551,6.13985 6.70764,10.04843c1.40234,2.21718 1.86523,4.70978 5.9352,6.6509c10.74475,5.12457 24.65816,9.56563 37.53509,14.29398c21.92231,8.04977 41.42647,15.17443 41.42647,15.17443z" data-paper-data="{&quot;index&quot;:null}"/><path d="M383.5,308.71904v81.78523h-99l2.87737,-84.88163z" data-paper-data="{&quot;index&quot;:null}"/><path d="M448.91315,408.53332v-96.65958h113.88462v96.65958z"/></g></g></svg>