<svg version="1.1" xmlns="http://www.w3.org/2000/svg" xmlns:xlink="http://www.w3.org/1999/xlink" width="510.95306" height="381.47536" viewBox="0,0,510.95306,381.47536"><g transform="translate(27.78471,1.02069)"><g data-paper-data="{&quot;isPaintingLayer&quot;:true}" fill-rule="nonzero" stroke="none" stroke-width="0" stroke-linecap="butt" stroke-linejoin="miter" stroke-miterlimit="10" stroke-dasharray="" stroke-dashoffset="0" style="mix-blend-mode: normal"><path d="M483.16835,-1.02069v12.77503h-510.95306v-12.77503z" data-paper-data="{&quot;index&quot;:null}" fill="#57caf2"/><path d="M483.16835,-1.02069v381.47536h-34.61887v-381.47536z" data-paper-data="{&quot;index&quot;:null}" fill="#57caf2"/><path d="M421.0344,45.17528l12.68931,222.16624l-18.23185,1.04134l-12.68931,-222.16624z" fill="#9f6001"/><path d="M429.65513,252.76519l0.82439,14.43354l-142.05652,8.11374l-0.82439,-14.43354z" fill="#9f6001"/><path d="M300.90373,179.86008l4.85957,85.08197l-18.23185,1.04134l-4.85957,-85.08197z" fill="#9f6001"/><path d="M293.30426,46.80769l5.32014,93.14575l-18.23185,1.04134l-5.32014,-93.14575z" fill="#9f6001"/><path d="M419.10875,39.78927l0.82439,14.43354l-142.05652,8.11374l-0.82439,-14.43354z" fill="#9f6001"/><path d="M385.46115,141.63864l23.64534,-1.25603l4.08209,76.84736l-23.64534,1.25603z" fill="#686868"/><g><path d="M306.97628,225.15697l85.83115,-5.08345l1.79945,30.38271l-85.83115,5.08345z" fill="#e82424"/><path d="M310.19451,228.01529l12.91264,-0.76477l1.43956,24.30617l-12.91264,0.76477z" fill="#e8e8e8"/></g><g><path d="M295.07578,61.95007l85.83115,-5.08345l1.79945,30.38271l-85.83115,5.08345z" fill="#e82424"/><path d="M298.29401,64.80839l12.91264,-0.76477l1.43956,24.30617l-12.91264,0.76477z" fill="#e8e8e8"/></g><path d="M257.6333,142.96828l-1.73578,-33.9425l22.88578,-2.3989l1.73578,33.9425z" fill="#693f1f"/></g></g></svg>