<svg version="1.1" xmlns="http://www.w3.org/2000/svg" xmlns:xlink="http://www.w3.org/1999/xlink" width="612.23079" height="466.84616" viewBox="0,0,612.23079,466.84616"><g transform="translate(41.4049,42.71142)"><g data-paper-data="{&quot;isPaintingLayer&quot;:true}" fill-rule="nonzero" stroke="none" stroke-width="0" stroke-linecap="butt" stroke-linejoin="miter" stroke-miterlimit="10" stroke-dasharray="" stroke-dashoffset="0" style="mix-blend-mode: normal"><path d="M288.50001,-5.5v57h-99v-57z" data-paper-data="{&quot;index&quot;:null}" fill="#9ef160"/><path d="M288.50001,-5.5v57h-99v-57z" data-paper-data="{&quot;index&quot;:null}" fill="#57caf2"/><path d="M195.50002,254.5v57h-99v-57z" data-paper-data="{&quot;index&quot;:null}" fill="#57caf2"/><path d="M195.50002,308.5v57h-99v-57z" data-paper-data="{&quot;index&quot;:null}" fill="#9ef160"/><path d="M195.50002,308.5v57h-99v-57z" data-paper-data="{&quot;index&quot;:null}" fill="#57caf2"/><path d="M480.50001,149.5v57h-99v-57z" data-paper-data="{&quot;index&quot;:null}" fill="#9ef160"/><path d="M480.50001,254.5v57h-99v-57z" data-paper-data="{&quot;index&quot;:null}" fill="#9ef160"/><path d="M480.50001,45.5v57h-99v-57z" data-paper-data="{&quot;index&quot;:null}" fill="#9ef160"/><path d="M480.50001,149.5v57h-99v-57z" data-paper-data="{&quot;index&quot;:null}" fill="#57caf2"/><path d="M480.50001,254.5v57h-99v-57z" data-paper-data="{&quot;index&quot;:null}" fill="#57caf2"/><path d="M480.50001,45.5v57h-99v-57z" data-paper-data="{&quot;index&quot;:null}" fill="#57caf2"/><path d="M480.50001,203.5v57h-99v-57z" data-paper-data="{&quot;index&quot;:null}" fill="#9ef160"/><path d="M480.50001,-5.5v57h-99v-57z" data-paper-data="{&quot;index&quot;:null}" fill="#9ef160"/><path d="M480.50001,308.5v57h-99v-57z" data-paper-data="{&quot;index&quot;:null}" fill="#9ef160"/><path d="M480.50001,99.5v57h-99v-57z" data-paper-data="{&quot;index&quot;:null}" fill="#9ef160"/><path d="M480.50001,203.5v57h-99v-57z" data-paper-data="{&quot;index&quot;:null}" fill="#57caf2"/><path d="M480.50001,-5.5v57h-99v-57z" data-paper-data="{&quot;index&quot;:null}" fill="#57caf2"/><path d="M480.50001,308.5v57h-99v-57z" data-paper-data="{&quot;index&quot;:null}" fill="#57caf2"/><path d="M480.50001,99.5v57h-99v-57z" data-paper-data="{&quot;index&quot;:null}" fill="#57caf2"/><path d="M98.5,149.5v57h-99v-57z" data-paper-data="{&quot;index&quot;:null}" fill="#9ef160"/><path d="M98.5,254.5v57h-99v-57z" data-paper-data="{&quot;index&quot;:null}" fill="#9ef160"/><path d="M98.5,149.5v57h-99v-57z" data-paper-data="{&quot;index&quot;:null}" fill="#57caf2"/><path d="M98.5,254.5v57h-99v-57z" data-paper-data="{&quot;index&quot;:null}" fill="#57caf2"/><path d="M98.5,203.5v57h-99v-57z" data-paper-data="{&quot;index&quot;:null}" fill="#9ef160"/><path d="M98.5,308.5v57h-99v-57z" data-paper-data="{&quot;index&quot;:null}" fill="#9ef160"/><path d="M98.5,203.5v57h-99v-57z" data-paper-data="{&quot;index&quot;:null}" fill="#57caf2"/><path d="M98.5,308.5v57h-99v-57z" data-paper-data="{&quot;index&quot;:null}" fill="#57caf2"/><path d="M383.50001,254.5v57h-99v-57z" data-paper-data="{&quot;index&quot;:null}" fill="#9ef160"/><path d="M383.50001,45.5v57h-99v-57z" data-paper-data="{&quot;index&quot;:null}" fill="#9ef160"/><path d="M383.50001,254.5v57h-99v-57z" data-paper-data="{&quot;index&quot;:null}" fill="#57caf2"/><path d="M383.50001,45.5v57h-99v-57z" data-paper-data="{&quot;index&quot;:null}" fill="#57caf2"/><path d="M383.50001,203.5v57h-99v-57z" data-paper-data="{&quot;index&quot;:null}" fill="#9ef160"/><path d="M383.50001,-5.5v57h-99v-57z" data-paper-data="{&quot;index&quot;:null}" fill="#9ef160"/><path d="M383.50001,308.5v57h-99v-57z" data-paper-data="{&quot;index&quot;:null}" fill="#9ef160"/><path d="M383.50001,99.5v57h-99v-57z" data-paper-data="{&quot;index&quot;:null}" fill="#9ef160"/><path d="M383.50001,203.5v57h-99v-57z" data-paper-data="{&quot;index&quot;:null}" fill="#57caf2"/><path d="M383.50001,-5.5v57h-99v-57z" data-paper-data="{&quot;index&quot;:null}" fill="#57caf2"/><path d="M383.50001,308.5v57h-99v-57z" data-paper-data="{&quot;index&quot;:null}" fill="#57caf2"/><path d="M383.50001,99.5v57h-99v-57z" data-paper-data="{&quot;index&quot;:null}" fill="#57caf2"/><path d="M284.90281,409.59627v-206.76923h256.84615v206.76923z" fill="#57caf2"/><path d="M284.90281,153.55781v-167.19231h272.19231v167.19231z" fill="#57caf2"/><path d="M382.63359,212.51935v-76.73077h188.19231v76.73077z" fill="#57caf2"/><path d="M-34.13567,50.1732v-92.88462h336.80769v92.88462z" fill="#57caf2"/><path d="M-37.36644,401.51935v-140.53846h224.53846v140.53846z" fill="#57caf2"/><path d="M-41.4049,424.13474v-319.56828h141.34615v319.56828z" fill="#57caf2"/></g></g></svg>