<svg version="1.1" xmlns="http://www.w3.org/2000/svg" xmlns:xlink="http://www.w3.org/1999/xlink" width="626.64262" height="383.91813" viewBox="0,0,626.64262,383.91813"><g transform="translate(72.18666,12.75867)"><g stroke="none" stroke-width="0" stroke-miterlimit="10"><path d="M-7.94127,355.58185v-368.34052h480.38375v368.34052z" fill="#61201c"/><path d="M7.96299,346.09783c0,0 -28.9466,-245.94274 -3.65344,-188.25753c34.91978,79.6403 126.25642,67.9766 153.3822,92.27031c27.12578,24.29372 5.25381,78.3415 40.18777,100.81181c31.41427,20.20637 -189.91653,-4.8246 -189.91653,-4.8246z" fill="#80350a"/><path d="M481.95128,-5.83641l-1.29318,179.11201l-177.9975,-157.12183v-21.99018z" fill="#4d1916"/><path d="M554.45596,-10.06336v379.87174h-86.29783v-379.87174z" fill="#4d1916"/><path d="M198.0413,-5.83641v21.99018l-191.66262,130.61157l-12.28525,-152.60175z" fill="#4d1916"/><path d="M7.00255,346.85374c0,0 -26.96362,-231.30977 -3.40316,-177.05668c32.52761,74.9019 117.60725,63.93216 142.87478,86.78046c25.26753,22.8483 4.8939,73.68038 37.43471,94.81376c29.26224,19.00414 -176.90633,-4.53754 -176.90633,-4.53754z" fill="#e16013"/><path d="M481.18888,344.58526v21.99018h-487.85785v-21.99018z" fill="#4d1916"/><path d="M14.11117,-8.71227v379.87174h-86.29783v-379.87174z" fill="#4d1916"/></g></g></svg>