<svg version="1.1" xmlns="http://www.w3.org/2000/svg" xmlns:xlink="http://www.w3.org/1999/xlink" width="644.53846" height="467.25001" viewBox="0,0,644.53846,467.25001"><g transform="translate(55.13566,60.8845)"><g data-paper-data="{&quot;isPaintingLayer&quot;:true}" fill="#57caf2" fill-rule="nonzero" stroke="none" stroke-width="0" stroke-linecap="butt" stroke-linejoin="miter" stroke-miterlimit="10" stroke-dasharray="" stroke-dashoffset="0" style="mix-blend-mode: normal"><path d="M-55.13566,386.98089v-432.92308h84v432.92308z"/><path d="M15.94126,393.44243v-55.73077h509.65385v55.73077z"/><path d="M447.24895,406.36551v-416.76923h112.26923v416.76923z"/><path d="M290.1528,38.05781v-74.71154h299.25v74.71154z"/><path d="M-34.74143,50.57704v-111.46154h135.70485v111.46154z"/><path d="M316.60472,187.07704c0,3.60422 2.40511,8.27737 1.71577,13.16506c-1.08443,7.68902 -6.25342,15.90897 -13.20464,21.33354c-9.2345,7.20639 -22.59254,15.64182 -36.89034,19.17747c-13.2781,3.28349 -27.36671,4.01178 -39.71581,3.80421c-3.65563,-0.06145 -7.15883,-0.94182 -10.44344,-0.94182c-19.07942,0 -41.71887,-13.04326 -53.56931,-31.33047c-13.63934,-21.04779 -15.08454,-48.51775 -15.08454,-62.36184c0,-18.1004 24.19251,-28.65855 52.49002,-30.82278c11.1189,-0.85039 22.87158,3.69312 34.03942,3.40191c0.48582,-0.01267 19.86483,1.86617 38.59713,10.60032c3.64802,1.70093 8.42754,2.27616 11.57845,4.68561c2.3993,1.8347 3.17555,5.41167 5.76733,7.38057c4.0268,3.05904 9.42343,6.27708 12.75966,10.68298c8.09919,10.69598 11.96029,24.44013 11.96029,31.22526z"/></g></g></svg>