<svg version="1.1" xmlns="http://www.w3.org/2000/svg" xmlns:xlink="http://www.w3.org/1999/xlink" width="595.26924" height="526.8397" viewBox="0,0,595.26924,526.8397"><g transform="translate(67.25105,85.51911)"><g data-paper-data="{&quot;isPaintingLayer&quot;:true}" fill-rule="nonzero" stroke="none" stroke-width="0" stroke-linecap="butt" stroke-linejoin="miter" stroke-miterlimit="10" stroke-dasharray="" stroke-dashoffset="0" style="mix-blend-mode: normal"><path d="M192.11304,101.88696v-57h99v57z" fill="#9ef160"/><path d="M192.11304,101.88696v-57h99v57z" fill="#57caf2"/><path d="M192.11304,47.88696v-57h99v57z" fill="#9ef160"/><path d="M192.11304,47.88696v-57h99v57z" fill="#57caf2"/><path d="M285.11304,47.88696v-57h99v57z" fill="#9ef160"/><path d="M285.11304,47.88696v-57h99v57z" fill="#57caf2"/><path d="M0.11304,206.88696v-57h99v57z" fill="#9ef160"/><path d="M0.11304,101.88696v-57h99v57z" fill="#9ef160"/><path d="M0.11304,310.88696v-57h99v57z" fill="#9ef160"/><path d="M0.11304,206.88696v-57h99v57z" fill="#57caf2"/><path d="M0.11304,101.88696v-57h99v57z" fill="#57caf2"/><path d="M0.11304,310.88696v-57h99v57z" fill="#57caf2"/><path d="M0.11304,152.88696v-57h99v57z" fill="#9ef160"/><path d="M0.11304,361.88696v-57h99v57z" fill="#9ef160"/><path d="M0.11304,47.88696v-57h99v57z" fill="#9ef160"/><path d="M0.11304,256.88696v-57h99v57z" fill="#9ef160"/><path d="M0.11304,152.88696v-57h99v57z" fill="#57caf2"/><path d="M0.11304,361.88696v-57h99v57z" fill="#57caf2"/><path d="M0.11304,47.88696v-57h99v57z" fill="#57caf2"/><path d="M0.11304,256.88696v-57h99v57z" fill="#57caf2"/><path d="M382.11304,47.88696v-57h99v57z" fill="#9ef160"/><path d="M382.11304,47.88696v-57h99v57z" fill="#57caf2"/><path d="M97.11304,101.88696v-57h99v57z" fill="#9ef160"/><path d="M97.11304,101.88696v-57h99v57z" fill="#57caf2"/><path d="M97.11304,152.88696v-57h99v57z" fill="#9ef160"/><path d="M97.11304,47.88696v-57h99v57z" fill="#9ef160"/><path d="M97.11304,152.88696v-57h99v57z" fill="#57caf2"/><path d="M97.11304,47.88696v-57h99v57z" fill="#57caf2"/><path d="M-34.13566,47.75012v-102.57692h562.15385v102.57692z" fill="#57caf2"/><path d="M-26.86643,441.32059v-446.84997h123.57692v446.84997z" fill="#57caf2"/><path d="M-67.25105,151.94243v-225.34615h264.11538v225.34615z" fill="#57caf2"/><path d="M166.17203,94.59627v-180.11538h117.92308v180.11538z" fill="#57caf2"/></g></g></svg>