<svg version="1.1" xmlns="http://www.w3.org/2000/svg" xmlns:xlink="http://www.w3.org/1999/xlink" width="518.07885" height="189.94652" viewBox="0,0,518.07885,189.94652"><g transform="translate(13.47707,0.82228)"><g data-paper-data="{&quot;isPaintingLayer&quot;:true}" fill-rule="nonzero" stroke="none" stroke-width="0" stroke-linecap="butt" stroke-linejoin="miter" stroke-miterlimit="10" stroke-dasharray="" stroke-dashoffset="0" style="mix-blend-mode: normal"><path d="M-13.47707,11.95275v-12.77503h518.07885v12.77503z" data-paper-data="{&quot;index&quot;:null}" fill="#57caf2"/><path d="M29.05998,21.47496l222.5168,-2.2655l0.18592,18.26061l-222.5168,2.2655z" fill="#9f6001"/><path d="M236.82582,22.59058l14.45631,-0.14718l1.4486,142.28067l-14.45631,0.14718z" fill="#9f6001"/><path d="M157.96798,147.78451l85.21622,-0.86761l0.18592,18.26061l-85.21622,0.86761z" fill="#9f6001"/><path d="M24.70564,149.1413l93.29272,-0.94984l0.18592,18.26061l-93.29272,0.94984z" fill="#9f6001"/><path d="M23.58965,23.14613l14.45631,-0.14718l1.4486,142.28067l-14.45631,0.14718z" fill="#9f6001"/><path d="M250.35944,67.03298v-14.79917h13.81256v14.79917z" fill="#4d4d4d"/><path d="M252.33266,129.18952v-14.79917h13.81256v14.79917z" fill="#4d4d4d"/><path d="M350.99381,130.17613v-14.79917h13.81256v14.79917z" fill="#4d4d4d"/><path d="M350.99381,66.04637v-14.79917h13.81256v14.79917z" fill="#4d4d4d"/><path d="M264.64204,143.98869v-101.62098h10.85273v101.62098z" fill="#925700"/><path d="M339.20102,148.45836v-106.55404h10.85273v106.55404z" fill="#925700"/><path d="M278.05105,143.98869v-101.62098h10.85272v101.62098z" fill="#925700"/><path d="M290.96343,143.49205v-101.62098h10.85272v101.62098z" fill="#925700"/><path d="M304.37246,143.49205v-101.62098h10.85273v101.62099z" fill="#925700"/><path d="M317.28485,142.99543v-101.62098h10.85272v101.62099z" fill="#925700"/><path d="M328.21072,144.48532v-101.62099h10.85273v101.62099z" fill="#925700"/><path d="M272.09149,142.99543v-101.62098h10.85272v101.62098z" fill="#a06000"/><path d="M286.9904,142.99543v-101.62098h10.85272v101.62098z" fill="#a06000"/><path d="M302.38594,145.47858v-101.62099h10.85272v101.62099z" fill="#a06000"/><path d="M317.78148,142.99543v-101.62099h10.85273v101.62099z" fill="#a06000"/><path d="M329.70061,142.99543v-101.62098h10.85273v101.62098z" fill="#a06000"/><path d="M340.12985,142.99543v-101.62098h10.85273v101.62098z" fill="#a06000"/><g><path d="M203.49964,143.84106l-1.05614,-85.97506l30.43365,-0.37386l1.05614,85.97506z" fill="#e82424"/><path d="M206.50562,140.76029l-0.15889,-12.93429l24.34693,-0.29909l0.15889,12.93429z" fill="#e8e8e8"/></g><path d="M197.24957,189.12424v-23.77148h42.51455v23.77148z" fill="#693f1f"/></g></g></svg>