<svg version="1.1" xmlns="http://www.w3.org/2000/svg" xmlns:xlink="http://www.w3.org/1999/xlink" width="638.88462" height="426.09138" viewBox="0,0,638.88462,426.09138"><g transform="translate(88.25104,35.07203)"><g data-paper-data="{&quot;isPaintingLayer&quot;:true}" fill-rule="nonzero" stroke="none" stroke-width="0" stroke-linecap="butt" stroke-linejoin="miter" stroke-miterlimit="10" stroke-dasharray="" stroke-dashoffset="0" style="mix-blend-mode: normal"><path d="M98.50002,308.50001v57h-99v-57z" data-paper-data="{&quot;index&quot;:null}" fill="#9ef160"/><path d="M98.50002,308.50001v57h-99v-57z" data-paper-data="{&quot;index&quot;:null}" fill="#57caf2"/><path d="M480.50001,149.5v57h-99v-57z" data-paper-data="{&quot;index&quot;:null}" fill="#9ef160"/><path d="M480.50001,45.50001v57h-99v-57z" data-paper-data="{&quot;index&quot;:null}" fill="#9ef160"/><path d="M480.50001,149.5v57h-99v-57z" data-paper-data="{&quot;index&quot;:null}" fill="#57caf2"/><path d="M480.50001,45.50001v57h-99v-57z" data-paper-data="{&quot;index&quot;:null}" fill="#57caf2"/><path d="M480.50001,-5.5v57h-99v-57z" data-paper-data="{&quot;index&quot;:null}" fill="#9ef160"/><path d="M480.50001,99.50001v57h-99v-57z" data-paper-data="{&quot;index&quot;:null}" fill="#9ef160"/><path d="M480.50001,-5.5v57h-99v-57z" data-paper-data="{&quot;index&quot;:null}" fill="#57caf2"/><path d="M480.50001,99.50001v57h-99v-57z" data-paper-data="{&quot;index&quot;:null}" fill="#57caf2"/><path d="M195.50002,254.50001v57h-99v-57z" data-paper-data="{&quot;index&quot;:null}" fill="#9ef160"/><path d="M195.50002,254.50001v57h-99v-57z" data-paper-data="{&quot;index&quot;:null}" fill="#57caf2"/><path d="M195.50002,308.50001v57h-99v-57z" data-paper-data="{&quot;index&quot;:null}" fill="#9ef160"/><path d="M195.50002,308.50001v57h-99v-57z" data-paper-data="{&quot;index&quot;:null}" fill="#57caf2"/><path d="M379.59125,206.71384l0.22955,-241.78587h113.5034v241.78588z" data-paper-data="{&quot;index&quot;:null}" fill="#57caf2"/><path d="M96.71051,311.86551v-52.5h99.34615v52.5z" fill="#57caf2"/><path d="M-88.25103,391.01935v-81.57692h638.88462v81.57692z" data-paper-data="{&quot;index&quot;:null}" fill="#57caf2"/></g></g></svg>