<svg version="1.1" xmlns="http://www.w3.org/2000/svg" xmlns:xlink="http://www.w3.org/1999/xlink" width="505.56625" height="379.10613" viewBox="0,0,505.56625,379.10613"><g transform="translate(17.57115,12.63874)"><g data-paper-data="{&quot;isPaintingLayer&quot;:true}" fill-rule="nonzero" stroke="none" stroke-width="0" stroke-linecap="butt" stroke-linejoin="miter" stroke-miterlimit="10" stroke-dasharray="" stroke-dashoffset="0" style="mix-blend-mode: normal"><path d="M-0.9984,363.767v-376.40574h480.38375v376.40574z" data-paper-data="{&quot;index&quot;:null}" fill="#7d7d7d"/><path d="M181.20325,-0.3554v28.22826h-198.7744v-28.22826z" data-paper-data="{&quot;index&quot;:null}" fill="#ca3636"/><path d="M487.9951,-1.3228v29.03478h-188.8788v-29.03478z" data-paper-data="{&quot;index&quot;:null}" fill="#ca3636"/><path d="M36.99673,27.22721v335.51304h-53.61811v-335.51304z" data-paper-data="{&quot;index&quot;:null}" fill="#ca3636"/><path d="M486.67569,22.54895v335.51304h-42.22459v-335.51304z" data-paper-data="{&quot;index&quot;:null}" fill="#ca3636"/><path d="M375.25326,366.46739v-49.19783h108.21665v49.19783z" fill="#ca3636"/><path d="M-1.55326,363.08044v-41.13261h104.84783v41.13261z" fill="#ca3636"/><path d="M327.50543,283.86199v37.1h-244.37608v-37.1z" data-paper-data="{&quot;index&quot;:null}" fill="#ca3636"/><path d="M411.87749,193.11232l-100.09088,127.85498l-23.9728,-18.76704l100.09088,-127.85498z" data-paper-data="{&quot;index&quot;:null}" fill="#ca3636"/><path d="M454.70953,126.86846l-161.88744,12.55129l-2.35337,-30.35389l161.88745,-12.55129z" data-paper-data="{&quot;index&quot;:null}" fill="#ca3636"/><path d="M394.38127,205.26194l-161.88744,12.55129l-2.35336,-30.35389l161.88744,-12.55129z" data-paper-data="{&quot;index&quot;:null}" fill="#ca3636"/><path d="M315.57624,137.29577l-161.89155,-12.49819l2.34341,-30.35466l161.89155,12.49819z" data-paper-data="{&quot;index&quot;:null}" fill="#ca3636"/><path d="M253.63494,218.91533l-161.89155,-12.49819l2.34341,-30.35466l161.89155,12.49819z" data-paper-data="{&quot;index&quot;:null}" fill="#ca3636"/><path d="M227.17538,135.04523l-137.18684,-48.55178l9.10346,-25.72253l137.18684,48.55178z" data-paper-data="{&quot;index&quot;:null}" fill="#ca3636"/><path d="M155.48326,215.92311l-144.54813,-73.96565l13.86856,-27.10277l144.54814,73.96564z" data-paper-data="{&quot;index&quot;:null}" fill="#ca3636"/><path d="M24.41631,322.91522v-134.68913h295.18696v134.68913z" fill="#ca3636"/><path d="M27.80326,289.20218v-134.68914h72.58696v134.68914z" fill="#ca3636"/><path d="M230.35188,185.07557l134.68284,1.30225l-0.70181,72.58357l-134.68284,-1.30225z" fill="#ca3636"/><path d="M181.52498,0.45111v49.19782h-24.19564v-49.19782z" data-paper-data="{&quot;index&quot;:null}" fill="#ca3636"/></g></g></svg>